<svg xmlns="http://www.w3.org/2000/svg" viewBox="0 0 128 128"><defs><style>.cls-1{isolation:isolate;}.cls-2{fill:#e6e6e6;}.cls-3{fill:#525c6b;}.cls-4{mix-blend-mode:multiply;}.cls-5{fill:#30423f;}.cls-6{fill:#3fa9f5;}</style></defs><g class="cls-1"><g id="图层_1" data-name="图层 1"><path class="cls-2" d="M4,116.11A7.89,7.89,0,0,0,11.89,124H116.11a7.89,7.89,0,0,0,7.89-7.89V28.55H4Z"/><path class="cls-3" d="M116.11,4H11.89A7.89,7.89,0,0,0,4,11.89V28.55H124V11.89A7.89,7.89,0,0,0,116.11,4Z"/><path class="cls-2" d="M110.46,19.81a2.81,2.81,0,0,1-2-4.79,2.88,2.88,0,0,1,4,0,2.81,2.81,0,0,1,.82,2,2.8,2.8,0,0,1-2.81,2.8Z"/><path class="cls-2" d="M95.87,17a2.81,2.81,0,0,1,2.81-2.82h0A2.82,2.82,0,0,1,101.5,17h0a2.81,2.81,0,0,1-2.82,2.8h0A2.8,2.8,0,0,1,95.87,17Z"/><path class="cls-2" d="M86.91,19.81a2.8,2.8,0,0,1-2-.82,2.84,2.84,0,0,1,0-4,2.93,2.93,0,0,1,4,0,2.81,2.81,0,0,1,.82,2,2.8,2.8,0,0,1-2.81,2.8Z"/><g class="cls-4"><path class="cls-5" d="M58.85,37.65l-.4.39L41.75,54.75h0l-4.61,4.62V78.85a23.13,23.13,0,0,1,4.61-3.51V61.5H61V42.26H90.65V107.4H77.6a23.55,23.55,0,0,1-3.52,4.48L74,112H95.26V37.65Zm0,21.74H43.63L58.87,44.15Z"/><path class="cls-6" d="M56.81,70.25V91L71.49,76.33A20.73,20.73,0,0,0,56.81,70.25Zm-3.32,4.6a20.75,20.75,0,1,0,14.67,35.42L53.49,95.6ZM72.2,80.66,57.53,95.33h0L72.2,110a20.74,20.74,0,0,0,0-29.34Z"/></g></g></g></svg>